<svg width="1509" height="348" fill="none" xmlns="http://www.w3.org/2000/svg"><path d="M48.473 146.01v12.414l43.35 25.812V146.01h-43.35zM128.768 206.206l72.512 43.054 70.837-42.857v-44.335l-72.315 42.857-71.034-42.758v44.039zM309.064 146.01v38.029l43.35-26.207V146.01h-43.35z" fill="#296DFF"/><path d="M400 146.01v-37.931h-25.813L201.773 0 24.926 108.079H0v37.931h11.527v164.039H0v37.931h400v-37.931h-10.64V146.01H400zm-127.882 0v164.039h-143.35V146.01h143.35zM199.31 44.335l108.867 63.744H95.665L199.31 44.335zM48.473 146.01h43.35v164.039h-43.35V146.01zm303.941 164.039h-43.35V146.01h43.35v164.039z" fill="#C9D2DC"/><path d="M464.641 294l-2.09-14.63 11.78-2.28v-98.23l-11.59-1.14v-15.01h82.84l3.61 36.67h-12.54l-7.6-19.19h-34.01v38.38h29.64v17.1h-29.64v40.66l31.16 4.56-1.14 13.11h-60.42zM559.777 294l-2.47-10.83 11.21-2.85v-63.46l-9.88.57-1.9-11.59 23.75-4.37 6.08 9.12c2.534-3.04 5.574-5.32 9.12-6.84 3.547-1.647 6.904-2.47 10.07-2.47 5.574 0 10.45 1.393 14.63 4.18 4.18 2.66 7.22 6.333 9.12 11.02l-19.95 10.26-6.08-9.31c-1.773 0-3.926.696-6.46 2.09-2.406 1.266-4.56 3.42-6.46 6.46-1.9 2.913-2.85 6.903-2.85 11.97v39.52l24.32 5.7V294h-52.25zM663.914 294.76c-5.574 0-10.45-1.077-14.63-3.23-4.18-2.154-7.474-5.13-9.88-8.93-2.28-3.8-3.42-8.17-3.42-13.11 0-5.827 1.52-10.64 4.56-14.44 3.04-3.927 6.966-7.03 11.78-9.31 4.813-2.28 10.006-3.864 15.58-4.75 5.573-1.014 10.83-1.584 15.77-1.71v-14.06c0-2.28-1.204-4.244-3.61-5.89-2.28-1.647-5.7-2.47-10.26-2.47-1.267 0-2.724.126-4.37.38-1.52.126-2.787.443-3.8.95l-4.18 12.54-20.9-7.6c2.533-6.334 6.903-11.527 13.11-15.58 6.333-4.054 13.49-6.08 21.47-6.08 5.953 0 11.273 1.013 15.96 3.04 4.813 2.026 8.613 5.193 11.4 9.5 2.913 4.306 4.37 9.943 4.37 16.91v44.84c0 1.52.316 2.723.95 3.61.76.76 1.71 1.14 2.85 1.14.633 0 1.266-.064 1.9-.19a21.12 21.12 0 001.33-.57l2.85 9.5c-1.014 1.013-2.724 2.216-5.13 3.61-2.407 1.266-5.194 1.9-8.36 1.9-3.674 0-6.587-.824-8.74-2.47-2.154-1.647-3.8-3.8-4.94-6.46-2.66 2.66-5.827 4.813-9.5 6.46-3.674 1.646-7.727 2.47-12.16 2.47zm3.42-15.58c3.673 0 6.966-.95 9.88-2.85 3.04-2.027 5.193-4.244 6.46-6.65v-16.34c-2.66.126-5.637.443-8.93.95a43.372 43.372 0 00-9.12 2.09c-2.914 1.013-5.32 2.47-7.22 4.37-1.774 1.9-2.66 4.37-2.66 7.41 0 2.913.95 5.51 2.85 7.79 2.026 2.153 4.94 3.23 8.74 3.23zM757.219 345.3c-7.094 0-13.427-1.267-19-3.8-5.574-2.407-9.944-5.827-13.11-10.26-3.167-4.307-4.75-9.31-4.75-15.01 0-6.207 1.583-11.4 4.75-15.58 3.166-4.054 6.776-7.22 10.83-9.5a18.358 18.358 0 01-3.8-4.94c-.887-2.027-1.33-4.37-1.33-7.03 0-3.04.696-5.764 2.09-8.17 1.393-2.534 3.04-4.75 4.94-6.65-4.307-2.914-7.79-6.65-10.45-11.21-2.66-4.687-3.99-10.197-3.99-16.53 0-7.347 1.709-13.617 5.13-18.81 3.42-5.194 7.916-9.184 13.49-11.97 5.573-2.914 11.526-4.37 17.86-4.37 4.433 0 8.676.696 12.73 2.09 4.18 1.393 7.916 3.356 11.21 5.89l19.38-9.69 4.18.57 2.09 16.72-17.29 2.09a35.481 35.481 0 013.23 8.17c.76 2.786 1.14 5.826 1.14 9.12 0 7.346-1.774 13.553-5.32 18.62-3.42 4.94-7.917 8.74-13.49 11.4-5.447 2.66-11.4 3.99-17.86 3.99h-3.42a24.55 24.55 0 01-3.23-.57l-3.61 5.51.38 3.04 19.57 4.37c6.206 1.393 11.526 3.293 15.96 5.7 4.56 2.28 8.043 5.13 10.45 8.55 2.406 3.546 3.61 7.98 3.61 13.3 0 7.346-1.964 13.616-5.89 18.81-3.8 5.32-8.93 9.31-15.39 11.97-6.46 2.786-13.49 4.18-21.09 4.18zm3.42-19.19c3.926 0 7.663-.507 11.21-1.52 3.546-1.014 6.46-2.534 8.74-4.56 2.28-2.027 3.42-4.434 3.42-7.22 0-2.407-1.077-4.37-3.23-5.89-2.154-1.52-5.004-2.787-8.55-3.8a195.975 195.975 0 00-11.4-2.47c-4.054-.76-7.98-1.71-11.78-2.85-3.42 1.646-6.144 3.673-8.17 6.08-1.9 2.533-2.85 5.32-2.85 8.36 0 2.66.886 5.003 2.66 7.03 1.9 2.153 4.496 3.8 7.79 4.94 3.42 1.266 7.473 1.9 12.16 1.9zm-.76-71.06c5.7 0 9.943-1.9 12.73-5.7 2.786-3.8 4.18-8.297 4.18-13.49 0-5.194-1.394-9.627-4.18-13.3-2.787-3.8-7.03-5.7-12.73-5.7-5.574 0-9.754 1.9-12.54 5.7-2.787 3.673-4.18 8.106-4.18 13.3 0 5.193 1.393 9.69 4.18 13.49 2.786 3.8 6.966 5.7 12.54 5.7zM819.406 294l-2.09-14.63 11.78-2.47v-98.04l-11.59-1.33v-14.82h31.54c14.567 0 27.234 2.406 38 7.22 10.767 4.686 19.064 11.78 24.89 21.28 5.954 9.373 8.93 21.343 8.93 35.91 0 14.44-2.533 26.663-7.6 36.67-5.066 9.88-12.476 17.416-22.23 22.61-9.753 5.066-21.723 7.6-35.91 7.6h-35.72zm35.72-17.29c7.854 0 14.567-1.204 20.14-3.61 5.574-2.407 10.134-5.764 13.68-10.07 3.547-4.434 6.144-9.627 7.79-15.58 1.647-6.08 2.47-12.73 2.47-19.95 0-10.007-1.836-18.494-5.51-25.46-3.546-7.094-8.866-12.477-15.96-16.15-6.966-3.674-15.453-5.574-25.46-5.7h-2.47v96.33l5.32.19zM976.722 294.76c-7.98 0-15.2-1.774-21.66-5.32-6.333-3.547-11.4-8.74-15.2-15.58-3.8-6.84-5.7-15.137-5.7-24.89 0-10.26 1.9-18.874 5.7-25.84 3.927-7.094 9.057-12.477 15.39-16.15 6.333-3.674 13.173-5.51 20.52-5.51 5.193 0 10.133.95 14.82 2.85 4.687 1.9 8.55 4.75 11.588 8.55 3.04 3.8 4.56 8.55 4.56 14.25 0 5.826-1.33 10.703-3.99 14.63-2.53 3.8-6.015 6.84-10.448 9.12-4.307 2.28-9.183 3.926-14.63 4.94-5.32 1.013-10.83 1.52-16.53 1.52h-6.84c1.013 6.206 3.42 11.463 7.22 15.77 3.8 4.18 9.753 6.27 17.86 6.27 5.32 0 9.817-.95 13.49-2.85 3.673-1.9 6.713-3.927 9.118-6.08l3.99 14.44c-1.52 1.52-3.73 3.103-6.648 4.75-2.913 1.52-6.333 2.786-10.26 3.8-3.8.886-7.917 1.33-12.35 1.33zm-22.42-51.87l5.13.19c2.787 0 5.763-.19 8.93-.57 3.293-.38 6.333-1.077 9.12-2.09 2.787-1.14 5.067-2.724 6.84-4.75 1.9-2.027 2.85-4.687 2.85-7.98 0-3.674-1.14-6.334-3.42-7.98-2.28-1.774-4.877-2.66-7.79-2.66-4.053 0-7.663 1.203-10.83 3.61-3.167 2.28-5.7 5.383-7.6 9.31-1.773 3.926-2.85 8.233-3.23 12.92zM1021.6 294l-1.71-10.83 10.45-2.47v-63.84l-9.88.38-1.9-11.59 25.08-4.37 5.7 7.22c2.79-2.027 6.21-3.674 10.26-4.94 4.05-1.394 8.17-2.09 12.35-2.09 5.45 0 10.32.95 14.63 2.85 4.31 1.9 7.66 4.75 10.07 8.55 2.53 3.8 3.8 8.676 3.8 14.63v53.58l10.83 2.09-.19 10.83h-39.71l-.19-10.83 10.07-2.28V231.3c0-4.687-1.14-8.17-3.42-10.45-2.28-2.28-5.57-3.42-9.88-3.42-3.8 0-7.41.823-10.83 2.47-3.42 1.646-5.95 3.293-7.6 4.94v56.05l11.21 2.47-.19 10.64h-38.95zM1160.7 294.76c-6.72 0-13.24-.76-19.57-2.28-6.34-1.52-11.97-3.357-16.91-5.51l1.71-34.01 14.25.76 2.85 20.33c1.9.633 4.37 1.33 7.41 2.09 3.04.76 6.2 1.14 9.5 1.14 4.18 0 8.04-.634 11.59-1.9 3.67-1.267 6.65-3.167 8.93-5.7 2.28-2.66 3.42-6.08 3.42-10.26 0-3.42-.76-6.334-2.28-8.74-1.4-2.407-3.68-4.624-6.84-6.65-3.04-2.154-7.1-4.37-12.16-6.65-4.94-2.407-9.69-4.75-14.25-7.03-4.56-2.28-8.62-4.877-12.16-7.79a34.009 34.009 0 01-8.55-10.45c-2.16-4.054-3.23-9.057-3.23-15.01 0-7.094 1.9-13.174 5.7-18.24 3.92-5.194 9.12-9.184 15.58-11.97 6.46-2.914 13.55-4.37 21.28-4.37 6.08 0 11.97.57 17.67 1.71 5.82 1.013 11.14 2.28 15.96 3.8l2.66 33.82h-13.87l-8.93-20.14c-1.9-.634-4.06-1.077-6.46-1.33-2.41-.254-4.82-.38-7.22-.38-4.18 0-7.86.696-11.02 2.09-3.04 1.266-5.45 3.103-7.22 5.51-1.65 2.28-2.47 5.003-2.47 8.17 0 3.166.82 5.89 2.47 8.17 1.77 2.28 4.05 4.306 6.84 6.08 2.78 1.646 5.82 3.166 9.12 4.56 3.29 1.393 6.46 2.85 9.5 4.37 7.6 3.546 13.68 7.156 18.24 10.83 4.68 3.673 8.04 7.726 10.07 12.16 2.15 4.306 3.23 9.183 3.23 14.63 0 6.713-1.27 12.476-3.8 17.29a35.426 35.426 0 01-10.26 11.78c-4.31 3.166-9.12 5.51-14.44 7.03a64.26 64.26 0 01-16.34 2.09zM1252.78 294.76c-4.05 0-7.73-.824-11.02-2.47-3.29-1.647-5.89-4.307-7.79-7.98-1.9-3.674-2.85-8.487-2.85-14.44l.38-53.39h-14.82l-2.66-12.92 1.33-2.09h16.34l.19-31.92 17.1-3.8 1.52 2.85-.19 32.87h19.57c.63 0 .95.38.95 1.14v13.87h-20.52v53.58c0 3.8.57 6.27 1.71 7.41 1.14 1.013 2.85 1.52 5.13 1.52s4.62-.697 7.03-2.09c2.53-1.394 4.31-2.47 5.32-3.23l4.18 13.3c-1.52 1.646-4.18 3.356-7.98 5.13-3.67 1.773-7.98 2.66-12.92 2.66zM1310.17 294.76c-5.57 0-10.45-1.077-14.63-3.23-4.18-2.154-7.47-5.13-9.88-8.93-2.28-3.8-3.42-8.17-3.42-13.11 0-5.827 1.52-10.64 4.56-14.44 3.04-3.927 6.97-7.03 11.78-9.31 4.82-2.28 10.01-3.864 15.58-4.75 5.58-1.014 10.83-1.584 15.77-1.71v-14.06c0-2.28-1.2-4.244-3.61-5.89-2.28-1.647-5.7-2.47-10.26-2.47-1.26 0-2.72.126-4.37.38-1.52.126-2.78.443-3.8.95l-4.18 12.54-20.9-7.6c2.54-6.334 6.91-11.527 13.11-15.58 6.34-4.054 13.49-6.08 21.47-6.08 5.96 0 11.28 1.013 15.96 3.04 4.82 2.026 8.62 5.193 11.4 9.5 2.92 4.306 4.37 9.943 4.37 16.91v44.84c0 1.52.32 2.723.95 3.61.76.76 1.71 1.14 2.85 1.14.64 0 1.27-.064 1.9-.19.64-.254 1.08-.444 1.33-.57l2.85 9.5c-1.01 1.013-2.72 2.216-5.13 3.61-2.4 1.266-5.19 1.9-8.36 1.9-3.67 0-6.58-.824-8.74-2.47-2.15-1.647-3.8-3.8-4.94-6.46-2.66 2.66-5.82 4.813-9.5 6.46-3.67 1.646-7.72 2.47-12.16 2.47zm3.42-15.58c3.68 0 6.97-.95 9.88-2.85 3.04-2.027 5.2-4.244 6.46-6.65v-16.34c-2.66.126-5.63.443-8.93.95-3.16.38-6.2 1.076-9.12 2.09-2.91 1.013-5.32 2.47-7.22 4.37-1.77 1.9-2.66 4.37-2.66 7.41 0 2.913.95 5.51 2.85 7.79 2.03 2.153 4.94 3.23 8.74 3.23zM1397.19 294.76c-5.57 0-10.45-1.077-14.63-3.23-4.18-2.154-7.47-5.13-9.88-8.93-2.28-3.8-3.42-8.17-3.42-13.11 0-5.827 1.52-10.64 4.56-14.44 3.04-3.927 6.97-7.03 11.78-9.31 4.82-2.28 10.01-3.864 15.58-4.75 5.58-1.014 10.83-1.584 15.77-1.71v-14.06c0-2.28-1.2-4.244-3.61-5.89-2.28-1.647-5.7-2.47-10.26-2.47-1.26 0-2.72.126-4.37.38-1.52.126-2.78.443-3.8.95l-4.18 12.54-20.9-7.6c2.54-6.334 6.91-11.527 13.11-15.58 6.34-4.054 13.49-6.08 21.47-6.08 5.96 0 11.28 1.013 15.96 3.04 4.82 2.026 8.62 5.193 11.4 9.5 2.92 4.306 4.37 9.943 4.37 16.91v44.84c0 1.52.32 2.723.95 3.61.76.76 1.71 1.14 2.85 1.14.64 0 1.27-.064 1.9-.19.64-.254 1.08-.444 1.33-.57l2.85 9.5c-1.01 1.013-2.72 2.216-5.13 3.61-2.4 1.266-5.19 1.9-8.36 1.9-3.67 0-6.58-.824-8.74-2.47-2.15-1.647-3.8-3.8-4.94-6.46-2.66 2.66-5.82 4.813-9.5 6.46-3.67 1.646-7.72 2.47-12.16 2.47zm3.42-15.58c3.68 0 6.97-.95 9.88-2.85 3.04-2.027 5.2-4.244 6.46-6.65v-16.34c-2.66.126-5.63.443-8.93.95-3.16.38-6.2 1.076-9.12 2.09-2.91 1.013-5.32 2.47-7.22 4.37-1.77 1.9-2.66 4.37-2.66 7.41 0 2.913.95 5.51 2.85 7.79 2.03 2.153 4.94 3.23 8.74 3.23zM1488.05 294.76c-4.05 0-7.72-.824-11.02-2.47-3.29-1.647-5.89-4.307-7.79-7.98-1.9-3.674-2.85-8.487-2.85-14.44l.38-53.39h-14.82l-2.66-12.92 1.33-2.09h16.34l.19-31.92 17.1-3.8 1.52 2.85-.19 32.87h19.57c.64 0 .95.38.95 1.14v13.87h-20.52v53.58c0 3.8.57 6.27 1.71 7.41 1.14 1.013 2.85 1.52 5.13 1.52s4.63-.697 7.03-2.09c2.54-1.394 4.31-2.47 5.32-3.23l4.18 13.3c-1.52 1.646-4.18 3.356-7.98 5.13-3.67 1.773-7.98 2.66-12.92 2.66z" fill="#001C5A"/></svg>