<svg xmlns="http://www.w3.org/2000/svg" width="456" height="456" fill="none"><path d="M76.473 200.02v12.41l43.347 25.82v-38.23zM156.77 260.22l72.51 43.05 70.84-42.86v-44.33l-72.32 42.86-71.03-42.76zM337.06 200.02v38.03l43.35-26.21v-11.82z" fill="#296dff"/><path d="M428 200.02v-37.93h-25.81L229.77 54.01 52.926 162.09H28v37.93h11.527v164.04H28v37.93h400v-37.93h-10.64V200.02zm-127.88 0v164.04H156.77V200.02zM227.31 98.345l108.87 63.745H123.67zM76.473 200.02h43.347v164.04H76.473zM380.41 364.06h-43.35V200.02h43.35z" fill="#c9d2dc"/></svg>